<svg width="14" height="14" viewBox="0 0 14 14" fill="none" xmlns="http://www.w3.org/2000/svg">
<path d="M6.99996 1.16675C6.67779 1.16675 6.41663 1.42792 6.41663 1.75008V6.41675H1.74996C1.42779 6.41675 1.16663 6.67792 1.16663 7.00008C1.16663 7.32225 1.42779 7.58341 1.74996 7.58341H6.41663V12.2501C6.41663 12.5722 6.67779 12.8334 6.99996 12.8334C7.32213 12.8334 7.58329 12.5722 7.58329 12.2501V7.58342H12.25C12.5721 7.58342 12.8333 7.32225 12.8333 7.00008C12.8333 6.67792 12.5721 6.41675 12.25 6.41675H7.58329V1.75008C7.58329 1.42792 7.32213 1.16675 6.99996 1.16675Z" fill="currentColor"/>
</svg>
