<svg width="16" height="16" viewBox="0 0 16 16" fill="none" xmlns="http://www.w3.org/2000/svg">
<path d="M12.8408 5.15039C13.0367 5.14958 13.225 5.22665 13.3643 5.36426C13.654 5.65146 13.6566 6.12042 13.3691 6.41016L8.53223 11.2861C8.22666 11.5939 7.73698 11.5932 7.43262 11.2842L2.62891 6.4082L2.53809 6.2959C2.51146 6.25547 2.48898 6.21206 2.4707 6.16699C2.43432 6.07714 2.41532 5.98072 2.41602 5.88379C2.41677 5.78697 2.43696 5.69076 2.47461 5.60156C2.51239 5.5123 2.56759 5.43026 2.63672 5.3623L2.6377 5.36328C2.77727 5.22616 2.9654 5.14907 3.16113 5.15039C3.35691 5.1519 3.54404 5.23095 3.68164 5.37012V5.37109L7.98535 9.73828L12.3193 5.36914L12.4316 5.27637C12.5517 5.19571 12.694 5.15107 12.8408 5.15039Z" fill="#7A7D85"/>
</svg>
