<svg width="40" height="40" viewBox="0 0 40 40" fill="none" xmlns="http://www.w3.org/2000/svg">
<path d="M5 4.99984C5 3.15889 6.49238 1.6665 8.33333 1.6665H24.3096C24.7517 1.6665 25.1756 1.8421 25.4882 2.15466L34.5118 11.1783C34.8244 11.4909 35 11.9148 35 12.3569V34.9998C35 36.8408 33.5076 38.3332 31.6667 38.3332H8.33333C6.49238 38.3332 5 36.8408 5 34.9998V4.99984Z" fill="#258832"/>
<path opacity="0.9" d="M25 2.14935C25 1.97117 25.2154 1.88193 25.3414 2.00793L34.6586 11.3251C34.7846 11.4511 34.6953 11.6665 34.5172 11.6665H28.3333C26.4924 11.6665 25 10.1741 25 8.33317V2.14935Z" fill="#1A7526"/>
<path d="M24.969 16.0995C25.3165 16.181 25.5734 16.4748 25.6081 16.83L25.7623 18.4124C25.8173 18.9758 25.3064 19.4289 24.7536 19.3071L20.917 18.4616C20.6962 18.413 20.492 18.5936 20.5135 18.8188L21.4111 28.2357C21.4111 28.3809 21.3929 28.4767 21.3604 28.5314C21.2808 30.4692 19.6846 32.0157 17.7272 32.0157C15.7189 32.0157 14.0908 30.3877 14.0908 28.3794C14.0908 26.371 15.7189 24.743 17.7272 24.743C18.5574 24.743 19.3226 25.0212 19.9347 25.4895L19.0915 15.8439C19.0421 15.2787 19.5597 14.8304 20.112 14.96L24.969 16.0995Z" fill="white"/>
</svg>
