<svg xmlns="http://www.w3.org/2000/svg" width="12" height="12" viewBox="0 0 12 12" fill="none">
  <path d="M2.00002 5.64639C2.09378 5.55266 2.22094 5.5 2.35352 5.5C2.4861 5.5 2.61325 5.55266 2.70702 5.64639L4.74277 7.68189L9.27827 3.14639C9.37203 3.05266 9.49919 3 9.63177 3C9.76435 3 9.8915 3.05266 9.98527 3.14639L10.3388 3.49989C10.3852 3.54633 10.4221 3.60145 10.4472 3.66213C10.4723 3.72281 10.4853 3.78784 10.4853 3.85352C10.4853 3.9192 10.4723 3.98423 10.4472 4.04491C10.4221 4.10558 10.3852 4.16071 10.3388 4.20714L5.09627 9.44965C5.04984 9.4961 4.99471 9.53295 4.93403 9.55808C4.87336 9.58322 4.80832 9.59616 4.74264 9.59616C4.67697 9.59616 4.61193 9.58322 4.55125 9.55808C4.49058 9.53295 4.43545 9.4961 4.38902 9.44965L1.64652 6.70714C1.60007 6.66071 1.56322 6.60558 1.53808 6.54491C1.51294 6.48423 1.5 6.4192 1.5 6.35352C1.5 6.28784 1.51294 6.22281 1.53808 6.16213C1.56322 6.10145 1.60007 6.04633 1.64652 5.99989L2.00002 5.64639Z" fill="currentColor"/>
</svg>
