<svg width="40" height="40" viewBox="0 0 40 40" fill="none" xmlns="http://www.w3.org/2000/svg">
<path d="M5 4.99984C5 3.15889 6.49238 1.6665 8.33333 1.6665H24.3096C24.7517 1.6665 25.1756 1.8421 25.4882 2.15466L34.5118 11.1783C34.8244 11.4909 35 11.9148 35 12.3569V34.9998C35 36.8408 33.5076 38.3332 31.6667 38.3332H8.33333C6.49238 38.3332 5 36.8408 5 34.9998V4.99984Z" fill="#336DF4"/>
<path opacity="0.7" d="M25 2.14935C25 1.97117 25.2154 1.88193 25.3414 2.00793L34.6586 11.3251C34.7846 11.4511 34.6953 11.6665 34.5172 11.6665H28.3333C26.4924 11.6665 25 10.1741 25 8.33317V2.14935Z" fill="#0442D2"/>
<path d="M17.1611 19.1273L12.9493 23.5605L17.1611 27.9936C17.3122 28.1527 17.3095 28.4078 17.1551 28.5635L17.1534 28.5652L16.5876 29.1289C16.4329 29.2831 16.1864 29.2796 16.0359 29.1211L11.0207 23.8423C10.8718 23.6857 10.8718 23.4352 11.0207 23.2786L16.0359 17.9998C16.1864 17.8414 16.4329 17.8379 16.5876 17.992L17.1534 18.5558C17.3088 18.7105 17.3129 18.9657 17.1626 19.1257L17.1611 19.1273ZM27.1963 23.5605L23.2854 19.1273C23.1451 18.9683 23.1476 18.7131 23.291 18.5574L23.2925 18.5558L23.818 17.992C23.9616 17.8379 24.1905 17.8414 24.3303 17.9998L28.9872 23.2786C29.1254 23.4352 29.1254 23.6857 28.9872 23.8423L24.3303 29.1211C24.1905 29.2796 23.9616 29.2831 23.818 29.1289L23.2925 28.5652C23.1483 28.4104 23.1445 28.1552 23.284 27.9952L23.2854 27.9936L27.1963 23.5605ZM21.0476 15.1539L21.8673 15.2418C22.0911 15.2658 22.2515 15.4536 22.2256 15.6611L20.269 31.1805C20.2429 31.3879 20.0406 31.5364 19.8171 31.5125L18.9974 31.4246C18.7736 31.4006 18.6132 31.2128 18.6391 31.0052L20.5956 15.4858C20.6218 15.2785 20.824 15.1299 21.0476 15.1539Z" fill="white"/>
</svg>
