<svg width="14" height="14" viewBox="0 0 14 14" fill="none" xmlns="http://www.w3.org/2000/svg">
<path d="M6.99985 2.15061L8.42487 4.35734C8.65939 4.72051 9.02002 4.98402 9.43728 5.09708L11.9748 5.78471L10.3167 7.85186C10.0483 8.18641 9.91214 8.60786 9.93403 9.03618L10.0692 11.6814L7.62968 10.7403C7.22435 10.584 6.77535 10.584 6.37002 10.7403L3.93049 11.6814L4.06567 9.03618C4.08756 8.60786 3.9514 8.18641 3.68304 7.85186L2.02489 5.78471L4.56243 5.09708C4.97968 4.98402 5.34032 4.72051 5.57483 4.35734L6.99985 2.15061ZM7.73491 1.13829C7.39022 0.604516 6.60948 0.604515 6.26479 1.13829L4.59476 3.72445C4.51658 3.8455 4.39637 3.93334 4.25729 3.97103L1.28978 4.77517C0.681093 4.94011 0.441487 5.67528 0.836084 6.16721L2.77298 8.58186C2.86243 8.69338 2.90782 8.83386 2.90052 8.97664L2.74241 12.0705C2.71007 12.7033 3.34006 13.1596 3.93118 12.9316L6.78991 11.8288C6.92502 11.7767 7.07468 11.7767 7.20979 11.8288L10.0685 12.9316C10.6596 13.1596 11.2896 12.7033 11.2573 12.0705L11.0992 8.97664C11.0919 8.83386 11.1373 8.69338 11.2267 8.58186L13.1636 6.16721C13.5582 5.67528 13.3186 4.94011 12.7099 4.77517L9.74242 3.97103C9.60333 3.93334 9.48312 3.8455 9.40495 3.72445L7.73491 1.13829Z" fill="#2B2F36"/>
</svg>
