<svg width="14" height="14" viewBox="0 0 14 14" fill="none" xmlns="http://www.w3.org/2000/svg">
<path d="M6.26479 1.13829C6.60948 0.604514 7.39022 0.604515 7.73491 1.13829L9.40495 3.72445C9.48312 3.8455 9.60333 3.93334 9.74242 3.97103L12.7099 4.77517C13.3186 4.94011 13.5582 5.67528 13.1636 6.16721L11.2267 8.58186C11.1373 8.69338 11.0919 8.83386 11.0992 8.97663L11.2573 12.0705C11.2896 12.7033 10.6596 13.1596 10.0685 12.9316L7.2098 11.8288C7.07469 11.7767 6.92502 11.7767 6.78991 11.8288L3.93118 12.9316C3.34006 13.1596 2.71007 12.7033 2.74241 12.0705L2.90052 8.97663C2.90782 8.83386 2.86243 8.69338 2.77298 8.58186L0.836084 6.16721C0.441487 5.67528 0.681093 4.94011 1.28978 4.77517L4.25729 3.97103C4.39637 3.93334 4.51658 3.8455 4.59476 3.72445L6.26479 1.13829Z" fill="#FFB700"/>
</svg>
