<svg width="40" height="40" viewBox="0 0 40 40" fill="none" xmlns="http://www.w3.org/2000/svg">
<path d="M5 4.99984C5 3.15889 6.49238 1.6665 8.33333 1.6665H24.3096C24.7517 1.6665 25.1756 1.8421 25.4882 2.15466L34.5118 11.1783C34.8244 11.4909 35 11.9148 35 12.3569V34.9998C35 36.8408 33.5076 38.3332 31.6667 38.3332H8.33333C6.49238 38.3332 5 36.8408 5 34.9998V4.99984Z" fill="#258832"/>
<path opacity="0.9" d="M25 2.14935C25 1.97117 25.2154 1.88193 25.3414 2.00793L34.6586 11.3251C34.7846 11.4511 34.6953 11.6665 34.5172 11.6665H28.3333C26.4924 11.6665 25 10.1741 25 8.33317V2.14935Z" fill="#1A7526"/>
<path d="M20.1279 17.4214C21.6318 17.4214 22.8672 17.9109 23.834 18.7523C24.304 19.1578 24.7114 19.8654 24.9995 20.4668C25.2468 20.9829 24.8539 21.5441 24.2816 21.5441H23.9619C23.6616 21.5441 23.3854 21.3818 23.2193 21.1316C22.9871 20.7818 22.6286 20.2982 22.2764 20.0474C21.7034 19.6267 20.9694 19.4048 20.0742 19.4048C18.7314 19.4048 17.7288 19.9135 17.0485 20.9079C16.4218 21.7876 16.0355 22.9957 16.0355 24.5638C16.0355 26.1701 16.4218 27.4288 17.0305 28.2894C17.693 29.2073 18.7314 29.7674 20.1279 29.7674C21.041 29.7674 21.793 29.4367 22.3659 28.9778C22.7221 28.6756 23.0416 28.1042 23.2453 27.6822C23.3952 27.3718 23.7034 27.1591 24.0481 27.1591H24.4215C24.9674 27.1591 25.358 27.6738 25.1623 28.1835C24.8806 28.9175 24.4297 29.8635 23.834 30.3767C22.7692 31.2941 21.9218 31.6579 20.1279 31.7062C18.0679 31.7617 16.4218 30.9283 15.3834 29.5132C14.4703 28.2894 14.0227 26.6448 14.0227 24.5795C14.0227 22.5525 14.4882 20.8888 15.4371 19.6267C16.5113 18.1734 18.0869 17.4214 20.1279 17.4214Z" fill="white"/>
</svg>
