<svg width="20" height="20" viewBox="0 0 20 20" fill="none" xmlns="http://www.w3.org/2000/svg">
<path d="M0 10C0 4.47715 4.47715 0 10 0V0C15.5228 0 20 4.47715 20 10V10C20 15.5228 15.5228 20 10 20V20C4.47715 20 0 15.5228 0 10V10Z" fill="#91B0FF" fill-opacity="0.7"/>
<path fill-rule="evenodd" clip-rule="evenodd" d="M3.75147 17.8079V15.9813C3.75147 15.9813 3.60074 14.1459 6.35087 13.6761C6.35087 13.6761 8.44443 13.3983 8.5909 12.8325C8.5909 12.8325 8.6709 12.7696 8.6119 12.1124C8.51545 11.0377 7.94351 10.4 7.51267 9.91967C7.38254 9.77458 7.26529 9.64385 7.1779 9.51977C6.80102 8.98474 6.76965 8.36749 6.76965 8.36749C6.76965 8.2163 6.83282 8.15899 6.93812 8.06347L6.94461 8.05759C7.06828 7.94545 7.04485 7.82682 7.02016 7.70184C7.01786 7.69025 7.01556 7.67859 7.01337 7.66689C6.91526 7.14322 6.91078 6.43104 6.97954 5.77492C7.0483 5.11881 7.57345 4.53087 7.81165 4.33393C8.16271 4.04366 8.90394 3.75 9.92791 3.75C11.9501 3.75 12.5529 4.73429 12.5529 4.73429C12.7443 4.9596 12.8704 5.23508 12.9464 5.51747C12.969 5.6019 12.9885 5.6881 12.9991 5.77492C13.0757 6.20775 13.0754 6.65912 13.0516 7.09651C13.0403 7.30506 13.0157 7.51033 12.9844 7.71675C12.9682 7.82471 12.9765 7.92525 13.0499 8.01153C13.0661 8.03053 13.0829 8.04803 13.0994 8.06523C13.1455 8.11333 13.1895 8.15912 13.2116 8.22901C13.2258 8.27334 13.2294 8.32123 13.2294 8.36751C13.2294 8.36751 13.198 8.98478 12.8211 9.51982C12.7337 9.64389 12.6165 9.77459 12.4864 9.91964C12.0555 10.4 11.4836 11.0376 11.387 12.1124C11.3281 12.7695 11.408 12.8325 11.408 12.8325C11.5546 13.3984 13.6481 13.6761 13.6481 13.6761C16.4291 14.183 16.2476 15.9813 16.2476 15.9813V17.8087C14.9196 18.8725 13.3143 19.6047 11.5575 19.8794C11.0132 19.9454 10.47 19.9844 9.92791 19.9965C9.89288 19.9973 9.85786 19.9979 9.82286 19.9985C7.52735 19.9586 5.4204 19.1452 3.75147 17.8079Z" fill="#E6EDFF"/>
</svg>
