<svg width="16" height="16" viewBox="0 0 16 16" fill="none" xmlns="http://www.w3.org/2000/svg">
<path d="M13.3333 12.0003C13.7015 12.0003 14 12.2988 14 12.667V14.0003C14 14.3685 13.7015 14.667 13.3333 14.667H2.66667C2.29848 14.667 2 14.3685 2 14.0003V12.667C2 12.2988 2.29848 12.0003 2.66667 12.0003C3.03486 12.0003 3.33333 12.2988 3.33333 12.667V13.3337H12.6667V12.667C12.6667 12.2988 12.9651 12.0003 13.3333 12.0003ZM8.66667 9.35747L10.438 7.58613C10.6983 7.32582 11.1204 7.32598 11.3807 7.58628C11.641 7.84658 11.6411 8.26863 11.3809 8.52898C10.4379 9.47229 9.49542 10.416 8.55168 11.3585C8.29158 11.6183 7.87027 11.6183 7.61017 11.3585C6.66522 10.4148 5.72149 9.46987 4.77735 8.52536C4.51978 8.26769 4.52812 7.84846 4.78574 7.59084C5.04336 7.33322 5.46259 7.32488 5.72021 7.5825L7.33334 9.19563V2.33366C7.33334 1.96547 7.63181 1.66699 8 1.66699C8.36819 1.66699 8.66667 1.96547 8.66667 2.33366V9.35747Z" fill="#2B2F36"/>
</svg>
