<svg width="16" height="16" viewBox="0 0 16 16" fill="none" xmlns="http://www.w3.org/2000/svg">
<path d="M5.83317 4.33333C6.4775 4.33333 6.99984 3.811 6.99984 3.16667C6.99984 2.52233 6.4775 2 5.83317 2C5.18884 2 4.6665 2.52233 4.6665 3.16667C4.6665 3.811 5.18884 4.33333 5.83317 4.33333Z" fill="currentColor"/>
<path d="M5.83317 9.16667C6.4775 9.16667 6.99984 8.64433 6.99984 8C6.99984 7.35567 6.4775 6.83333 5.83317 6.83333C5.18884 6.83333 4.6665 7.35567 4.6665 8C4.6665 8.64433 5.18884 9.16667 5.83317 9.16667Z" fill="currentColor"/>
<path d="M6.99984 12.8333C6.99984 13.4777 6.4775 14 5.83317 14C5.18884 14 4.6665 13.4777 4.6665 12.8333C4.6665 12.189 5.18884 11.6667 5.83317 11.6667C6.4775 11.6667 6.99984 12.189 6.99984 12.8333Z" fill="currentColor"/>
<path d="M10.1688 4.33333C10.8131 4.33333 11.3354 3.811 11.3354 3.16667C11.3354 2.52233 10.8131 2 10.1688 2C9.52445 2 9.00212 2.52233 9.00212 3.16667C9.00212 3.811 9.52445 4.33333 10.1688 4.33333Z" fill="currentColor"/>
<path d="M11.3332 8C11.3332 8.64433 10.8108 9.16667 10.1665 9.16667C9.52217 9.16667 8.99984 8.64433 8.99984 8C8.99984 7.35567 9.52217 6.83333 10.1665 6.83333C10.8108 6.83333 11.3332 7.35567 11.3332 8Z" fill="currentColor"/>
<path d="M10.1688 14C10.8131 14 11.3354 13.4777 11.3354 12.8333C11.3354 12.189 10.8131 11.6667 10.1688 11.6667C9.52445 11.6667 9.00212 12.189 9.00212 12.8333C9.00212 13.4777 9.52445 14 10.1688 14Z" fill="currentColor"/>
</svg>
