<svg width="40" height="40" viewBox="0 0 40 40" fill="none" xmlns="http://www.w3.org/2000/svg">
<path d="M5 4.99984C5 3.15889 6.49238 1.6665 8.33333 1.6665H24.3096C24.7517 1.6665 25.1756 1.8421 25.4882 2.15466L34.5118 11.1783C34.8244 11.4909 35 11.9148 35 12.3569V34.9998C35 36.8408 33.5076 38.3332 31.6667 38.3332H8.33333C6.49238 38.3332 5 36.8408 5 34.9998V4.99984Z" fill="#258832"/>
<path opacity="0.9" d="M25 2.14935C25 1.97117 25.2154 1.88193 25.3414 2.00793L34.6586 11.3251C34.7846 11.4511 34.6953 11.6665 34.5172 11.6665H28.3333C26.4924 11.6665 25 10.1741 25 8.33317V2.14935Z" fill="#1A7526"/>
<path d="M14.2443 16.5151H16.064C16.1447 16.5151 16.2202 16.5548 16.266 16.6212L19.7637 21.6898L23.2798 16.6207C23.3256 16.5546 23.401 16.5151 23.4815 16.5151H25.3009C25.4365 16.5151 25.5464 16.625 25.5464 16.7606C25.5464 16.8117 25.5304 16.8615 25.5008 16.9031L20.9458 23.2925L25.8632 30.2185C25.9416 30.329 25.9156 30.4823 25.8051 30.5607C25.7636 30.5902 25.7139 30.606 25.663 30.606H23.8434C23.7628 30.606 23.6874 30.5665 23.6416 30.5002L19.7636 24.8954L15.9042 30.4998C15.8584 30.5663 15.7828 30.606 15.7021 30.606H13.8822C13.7466 30.606 13.6367 30.4962 13.6367 30.3606C13.6367 30.31 13.6524 30.2606 13.6815 30.2192L18.5623 23.2925L14.0438 16.9023C13.9656 16.7916 13.9919 16.6384 14.1025 16.5602C14.144 16.5309 14.1935 16.5151 14.2443 16.5151Z" fill="white"/>
</svg>
