<svg width="16" height="16" viewBox="0 0 16 16" fill="none" xmlns="http://www.w3.org/2000/svg">
<path d="M1.3335 3.33325C1.3335 2.22868 2.22893 1.33325 3.3335 1.33325H11.3335C11.7017 1.33325 12.0002 1.63173 12.0002 1.99992C12.0002 2.36811 11.7017 2.66659 11.3335 2.66659H3.3335C2.96531 2.66659 2.66683 2.96506 2.66683 3.33325V12.6666C2.66683 13.0348 2.96531 13.3333 3.3335 13.3333H11.3335C11.7017 13.3333 12.0002 13.6317 12.0002 13.9999C12.0002 14.3681 11.7017 14.6666 11.3335 14.6666H3.3335C2.22893 14.6666 1.3335 13.7712 1.3335 12.6666V3.33325Z" fill="currentColor"/>
<path d="M12.724 7.33325L10.8621 5.47132C10.6017 5.21097 10.6017 4.78886 10.8621 4.52851C11.1224 4.26816 11.5446 4.26816 11.8049 4.52851L14.8049 7.52851C14.9347 7.65834 15.0053 7.83597 14.9999 8.0195C14.9945 8.20303 14.9136 8.37621 14.7764 8.49819L11.7764 11.1649C11.5012 11.4095 11.0798 11.3847 10.8352 11.1095C10.5906 10.8343 10.6154 10.4129 10.8906 10.1683L12.58 8.66658H6.00016C5.63197 8.66658 5.3335 8.36811 5.3335 7.99992C5.3335 7.63173 5.63197 7.33325 6.00016 7.33325H12.724Z" fill="currentColor"/>
</svg>
