<svg width="14" height="14" viewBox="0 0 14 14" fill="none" xmlns="http://www.w3.org/2000/svg">
<path d="M1.1665 2.91675C1.1665 1.95025 1.95001 1.16675 2.9165 1.16675H9.9165C10.2387 1.16675 10.4998 1.42792 10.4998 1.75008C10.4998 2.07225 10.2387 2.33341 9.9165 2.33341H2.9165C2.59434 2.33341 2.33317 2.59458 2.33317 2.91675V11.0834C2.33317 11.4056 2.59434 11.6667 2.9165 11.6667H9.9165C10.2387 11.6667 10.4998 11.9279 10.4998 12.2501C10.4998 12.5722 10.2387 12.8334 9.9165 12.8334H2.9165C1.95001 12.8334 1.1665 12.0499 1.1665 11.0834V2.91675Z" fill="currentColor"/>
<path d="M11.1332 6.41675L9.50402 4.78756C9.27622 4.55975 9.27622 4.19041 9.50402 3.9626C9.73183 3.7348 10.1012 3.7348 10.329 3.9626L12.954 6.5876C13.0676 6.7012 13.1293 6.85663 13.1246 7.01722C13.1199 7.1778 13.0491 7.32934 12.929 7.43607L10.304 9.7694C10.0633 9.98344 9.69455 9.96175 9.48051 9.72096C9.26648 9.48017 9.28817 9.11146 9.52896 8.89743L11.0072 7.58342H5.24984C4.92767 7.58342 4.6665 7.32225 4.6665 7.00008C4.6665 6.67792 4.92767 6.41675 5.24984 6.41675H11.1332Z" fill="currentColor"/>
</svg>
