<svg width="16" height="16" viewBox="0 0 16 16" fill="none" xmlns="http://www.w3.org/2000/svg">
<path d="M13.3333 2.66671H2.66665V13.3334H7.33331V14.6667H2.66665C1.93027 14.6667 1.33331 14.0698 1.33331 13.3334V2.66671C1.33331 1.93033 1.93027 1.33337 2.66665 1.33337H13.3333C14.0697 1.33337 14.6666 1.93033 14.6666 2.66671V6.66671H13.3333V2.66671Z" fill="#7A7D85"/>
<path d="M4.66665 4.33337C4.29846 4.33337 3.99998 4.63185 3.99998 5.00004C3.99998 5.36823 4.29846 5.66671 4.66665 5.66671H9.99998C10.3682 5.66671 10.6666 5.36823 10.6666 5.00004C10.6666 4.63185 10.3682 4.33337 9.99998 4.33337H4.66665Z" fill="#7A7D85"/>
<path d="M3.99998 7.66671C3.99998 7.29852 4.29846 7.00004 4.66665 7.00004H6.99998C7.36817 7.00004 7.66665 7.29852 7.66665 7.66671C7.66665 8.0349 7.36817 8.33337 6.99998 8.33337H4.66665C4.29846 8.33337 3.99998 8.0349 3.99998 7.66671Z" fill="#7A7D85"/>
<path d="M4.66665 9.66671C4.29846 9.66671 3.99998 9.96518 3.99998 10.3334C3.99998 10.7016 4.29846 11 4.66665 11H6.33331C6.7015 11 6.99998 10.7016 6.99998 10.3334C6.99998 9.96518 6.7015 9.66671 6.33331 9.66671H4.66665Z" fill="#7A7D85"/>
<path d="M13.9593 12.7201C14.4025 12.1541 14.6666 11.4413 14.6666 10.6667C14.6666 8.82576 13.1743 7.33337 11.3333 7.33337C9.49236 7.33337 7.99998 8.82576 7.99998 10.6667C7.99998 12.5077 9.49236 14 11.3333 14C11.9178 14 12.4671 13.8496 12.9447 13.5854L14.0765 14.8873C14.3181 15.1652 14.7392 15.1947 15.017 14.9531C15.2949 14.7116 15.3244 14.2905 15.0828 14.0126L13.9593 12.7201ZM11.3333 12.6667C10.2287 12.6667 9.33331 11.7713 9.33331 10.6667C9.33331 9.56214 10.2287 8.66671 11.3333 8.66671C12.4379 8.66671 13.3333 9.56214 13.3333 10.6667C13.3333 11.7713 12.4379 12.6667 11.3333 12.6667Z" fill="#7A7D85"/>
</svg>
