<svg width="16" height="16" viewBox="0 0 16 16" fill="none" xmlns="http://www.w3.org/2000/svg">
<path d="M7.99998 2.66671C7.99998 1.93033 8.59693 1.33337 9.33331 1.33337H13.3333C14.0697 1.33337 14.6666 1.93033 14.6666 2.66671V6.66671C14.6666 7.40309 14.0697 8.00004 13.3333 8.00004H9.33331C8.59693 8.00004 7.99998 7.40309 7.99998 6.66671V2.66671ZM9.33331 2.66671V6.66671H13.3333V2.66671H9.33331Z" fill="#7A7D85"/>
<path d="M1.33331 9.33337C1.33331 8.59699 1.93027 8.00004 2.66665 8.00004H6.66665C7.40303 8.00004 7.99998 8.59699 7.99998 9.33337V13.3334C7.99998 14.0698 7.40303 14.6667 6.66665 14.6667H2.66665C1.93027 14.6667 1.33331 14.0698 1.33331 13.3334V9.33337ZM2.66665 9.33337L2.66665 13.3334H6.66665V9.33337H2.66665Z" fill="#7A7D85"/>
<path d="M14 9.99512L14 10V11.3334C14 13.1743 12.5076 14.6667 10.6666 14.6667H9.99998C9.63179 14.6667 9.33331 14.3682 9.33331 14C9.33331 13.6319 9.63179 13.3334 9.99998 13.3334H10.6666C11.7091 13.3334 12.5653 12.5358 12.6583 11.5176L11.6893 11.41C11.4115 11.3791 11.2927 11.0406 11.4904 10.843L13.4309 8.90242C13.6409 8.69243 14 8.84115 14 9.13812V9.99512Z" fill="#7A7D85"/>
<path d="M1.99994 6.01313C1.99986 6.00878 1.99982 6.00441 1.99982 6.00004L1.99982 4.66671C1.99982 2.82576 3.4922 1.33337 5.33315 1.33337H5.99982C6.36801 1.33337 6.66648 1.63185 6.66648 2.00004C6.66648 2.36823 6.36801 2.66671 5.99982 2.66671H5.33315C4.29576 2.66671 3.44284 3.45653 3.34293 4.46765L4.58301 4.59167C4.87103 4.62047 4.98798 4.97747 4.77282 5.17111L2.55626 7.16602C2.34176 7.35907 1.99994 7.20684 1.99994 6.91825L1.99994 6.01313Z" fill="#7A7D85"/>
</svg>
