<svg width="16" height="16" viewBox="0 0 16 16" fill="none" xmlns="http://www.w3.org/2000/svg">
<path d="M1.33332 2.00004C1.33332 1.63185 1.63179 1.33337 1.99998 1.33337H14C14.1768 1.33337 14.3464 1.40361 14.4714 1.52864C14.5964 1.65366 14.6666 1.82323 14.6666 2.00004L14.6666 4.66671C14.6666 5.0349 14.3682 5.33337 14 5.33337C13.6318 5.33337 13.3333 5.0349 13.3333 4.66671L13.3333 2.66671H8.66665L8.66665 13.3334H10.6666C11.0348 13.3334 11.3333 13.6319 11.3333 14C11.3333 14.3682 11.0348 14.6667 10.6666 14.6667H5.33331C4.96512 14.6667 4.66665 14.3682 4.66665 14C4.66665 13.6319 4.96512 13.3334 5.33331 13.3334H7.33331L7.33331 2.66671H2.66665L2.66665 4.66671C2.66665 5.0349 2.36817 5.33337 1.99998 5.33337C1.63179 5.33337 1.33331 5.0349 1.33331 4.66671L1.33332 2.00004Z" fill="#7A7D85"/>
</svg>
