<svg width="16" height="16" viewBox="0 0 16 16" fill="none" xmlns="http://www.w3.org/2000/svg">
<path d="M4.66665 1.33331C5.03484 1.33331 5.33331 1.63179 5.33331 1.99998H10.6666C10.6666 1.63179 10.9651 1.33331 11.3333 1.33331C11.7015 1.33331 12 1.63179 12 1.99998C12.2761 1.99998 12.8131 1.99998 13.3333 1.99998C14.0697 1.99998 14.6666 2.59693 14.6666 3.33331V13.3333C14.6666 14.0697 14.0697 14.6666 13.3333 14.6666H2.66665C1.93027 14.6666 1.33331 14.0697 1.33331 13.3333L1.33331 3.33331C1.33331 2.59693 1.93024 1.99998 2.66662 1.99998C3.18682 1.99998 3.72385 1.99998 3.99998 1.99998C3.99998 1.63179 4.29846 1.33331 4.66665 1.33331ZM10.6666 3.33331H5.33331C5.33331 3.7015 5.03484 3.99998 4.66665 3.99998C4.29846 3.99998 3.99998 3.7015 3.99998 3.33331H2.66665V13.3333H13.3333V3.33331H12C12 3.7015 11.7015 3.99998 11.3333 3.99998C10.9651 3.99998 10.6666 3.7015 10.6666 3.33331ZM5.99998 9.99998C5.99998 9.63179 5.7015 9.33331 5.33331 9.33331H4.66665C4.29846 9.33331 3.99998 9.63179 3.99998 9.99998V10.6666C3.99998 11.0348 4.29846 11.3333 4.66665 11.3333H5.33331C5.7015 11.3333 5.99998 11.0348 5.99998 10.6666V9.99998ZM6.99998 6.66665C6.99998 6.29846 7.29846 5.99998 7.66665 5.99998H8.33331C8.7015 5.99998 8.99998 6.29846 8.99998 6.66665V7.33331C8.99998 7.7015 8.7015 7.99998 8.33331 7.99998H7.66665C7.29846 7.99998 6.99998 7.7015 6.99998 7.33331V6.66665ZM8.99998 9.99998C8.99998 9.63179 8.7015 9.33331 8.33331 9.33331H7.66665C7.29846 9.33331 6.99998 9.63179 6.99998 9.99998V10.6666C6.99998 11.0348 7.29846 11.3333 7.66665 11.3333H8.33331C8.7015 11.3333 8.99998 11.0348 8.99998 10.6666V9.99998ZM9.99998 9.99998C9.99998 9.63179 10.2985 9.33331 10.6666 9.33331H11.3333C11.7015 9.33331 12 9.63179 12 9.99998V10.6666C12 11.0348 11.7015 11.3333 11.3333 11.3333H10.6666C10.2985 11.3333 9.99998 11.0348 9.99998 10.6666V9.99998ZM12 6.66665C12 6.29846 11.7015 5.99998 11.3333 5.99998H10.6666C10.2985 5.99998 9.99998 6.29846 9.99998 6.66665V7.33331C9.99998 7.7015 10.2985 7.99998 10.6666 7.99998H11.3333C11.7015 7.99998 12 7.7015 12 7.33331V6.66665Z" fill="#7A7D85"/>
</svg>
