<svg width="16" height="16" viewBox="0 0 16 16" fill="none" xmlns="http://www.w3.org/2000/svg">
<path d="M5.17023 7.77179C4.9109 7.51075 4.9111 7.08853 5.17129 6.82834C5.43148 6.56815 5.85371 6.56794 6.1139 6.82813L7.99983 8.71407L9.88555 6.82836C10.1458 6.56807 10.5679 6.56828 10.8281 6.82857C11.0884 7.08885 11.0886 7.51088 10.8292 7.77202C10.0418 8.56469 9.25848 9.36244 8.46097 10.1449C8.20468 10.3963 7.79499 10.3963 7.5387 10.1449C6.74111 9.36237 5.95776 8.56453 5.17023 7.77179Z" fill="#7A7D85"/>
<path d="M8.00002 15.3334C3.94993 15.3334 0.666687 12.0501 0.666687 8.00002C0.666687 3.94993 3.94993 0.666687 8.00002 0.666687C12.0501 0.666687 15.3334 3.94993 15.3334 8.00002C15.3334 12.0501 12.0501 15.3334 8.00002 15.3334ZM8.00002 14C11.3137 14 14 11.3137 14 8.00002C14 4.68631 11.3137 2.00002 8.00002 2.00002C4.68631 2.00002 2.00002 4.68631 2.00002 8.00002C2.00002 11.3137 4.68631 14 8.00002 14Z" fill="#7A7D85"/>
</svg>
