<svg width="16" height="16" viewBox="0 0 16 16" fill="none" xmlns="http://www.w3.org/2000/svg">
<path d="M8.20258 4.8764C8.46293 4.61605 8.88513 4.61613 9.14548 4.87648C9.40584 5.13684 9.40591 5.55905 9.14555 5.8194L5.41999 9.54466C5.23435 9.73032 5.13006 9.98211 5.13006 10.2447C5.13006 10.5072 5.23435 10.759 5.41999 10.9447L5.42732 10.952C5.61517 11.1381 5.86908 11.2422 6.13351 11.2416C6.39794 11.241 6.65136 11.1357 6.83832 10.9487L11.7917 5.99533C12.0084 5.77865 12.1802 5.52142 12.2975 5.23831C12.4148 4.9552 12.4752 4.65176 12.4752 4.34532C12.4752 4.03889 12.4148 3.73545 12.2975 3.45234C12.1802 3.16923 12.0084 2.912 11.7917 2.69532L11.7673 2.67066C11.5506 2.45396 11.2934 2.28207 11.0103 2.16479C10.7272 2.04752 10.4238 1.98716 10.1173 1.98716C9.81088 1.98716 9.50745 2.04752 9.22434 2.16479C8.94123 2.28207 8.684 2.45396 8.46732 2.67066L3.28232 7.85566C1.84499 9.29333 1.84499 11.6237 3.28232 13.061C4.71999 14.4987 7.05032 14.4987 8.48766 13.061L13.2013 8.3474C13.4616 8.08705 13.8838 8.08714 14.1442 8.34749C14.4045 8.60784 14.4046 9.03005 14.1443 9.2904L9.43066 14.004C7.47266 15.962 4.29765 15.962 2.33965 14.004C0.381655 12.0457 0.381655 8.87099 2.33965 6.91299L7.52466 1.72799C8.95666 0.295992 11.278 0.295992 12.71 1.72799L12.7347 1.75266C14.1667 3.18433 14.1667 5.50599 12.7347 6.93799L7.78132 11.8913C7.3451 12.3277 6.75381 12.5735 6.13681 12.575C5.5198 12.5765 4.92732 12.3336 4.48899 11.8993L4.48499 11.8953L4.47699 11.8877C4.04129 11.452 3.79651 10.861 3.79651 10.2448C3.79651 9.62864 4.04129 9.0377 4.47699 8.60199L8.20258 4.8764Z" fill="#7A7D85"/>
</svg>
