<svg width="14" height="14" viewBox="0 0 14 14" fill="none" xmlns="http://www.w3.org/2000/svg">
<path d="M9.33317 6.66819V12.2501C9.33317 12.5722 9.072 12.8334 8.74984 12.8334C8.42767 12.8334 8.1665 12.5722 8.1665 12.2501V6.41675C8.1665 6.33102 8.185 6.24961 8.21821 6.1763C8.26253 6.06627 8.34187 5.96936 8.45144 5.90395L11.6665 3.98479V2.33341H2.33317V4.00514L5.45111 5.86907C5.6741 5.95105 5.83317 6.16532 5.83317 6.41675V10.2084C5.83317 10.5306 5.572 10.7917 5.24984 10.7917C4.92767 10.7917 4.6665 10.5306 4.6665 10.2084V6.6881C4.38835 6.52182 2.70139 5.59873 1.77487 5.09286C1.39995 4.88815 1.1665 4.49597 1.1665 4.0688C1.1665 3.5923 1.1665 2.93849 1.1665 2.33337C1.1665 1.68904 1.68884 1.16675 2.33317 1.16675H11.6665C12.3108 1.16675 12.8332 1.68907 12.8332 2.33341C12.8332 2.90559 12.8332 3.48036 12.8332 4.05123C12.8332 4.47646 12.6018 4.86801 12.2293 5.07315L9.33317 6.66819Z" fill="currentColor"/>
</svg>
