<svg width="40" height="40" viewBox="0 0 40 40" fill="none" xmlns="http://www.w3.org/2000/svg">
<path d="M5 4.99984C5 3.15889 6.49238 1.6665 8.33333 1.6665H24.3096C24.7517 1.6665 25.1756 1.8421 25.4882 2.15466L34.5118 11.1783C34.8244 11.4909 35 11.9148 35 12.3569V34.9998C35 36.8408 33.5076 38.3332 31.6667 38.3332H8.33333C6.49238 38.3332 5 36.8408 5 34.9998V4.99984Z" fill="#FFC60A"/>
<path opacity="0.8" d="M25 2.14935C25 1.97117 25.2154 1.88193 25.3414 2.00793L34.6586 11.3251C34.7846 11.4511 34.6953 11.6665 34.5172 11.6665H28.3333C26.4924 11.6665 25 10.1741 25 8.33317V2.14935Z" fill="#D99904"/>
<path d="M13.9528 16.6665C13.0323 16.6665 12.2861 17.4127 12.2861 18.3332V18.6362C12.2861 19.5567 13.0323 20.3029 13.9528 20.3029H14.2558C15.1763 20.3029 15.9225 19.5567 15.9225 18.6362V18.3332C15.9225 17.4127 15.1763 16.6665 14.2558 16.6665H13.9528Z" fill="white"/>
<path d="M27.8251 21.2662C28.443 20.5988 29.5588 21.0361 29.5588 21.9456V30.8331C29.5588 31.2934 29.1857 31.6665 28.7255 31.6665L12.3346 31.6665C11.7684 31.6665 11.46 31.0054 11.8237 30.5715L16.6996 24.7553C17.3657 23.9607 18.5879 23.9607 19.254 24.7553L21.7916 27.7823L27.8251 21.2662Z" fill="white"/>
</svg>
