<svg width="14" height="14" viewBox="0 0 14 14" fill="none" xmlns="http://www.w3.org/2000/svg">
<path d="M1.16666 11.0833C1.16666 12.0498 1.95016 12.8333 2.91666 12.8333L9.91666 12.8333C10.2388 12.8333 10.5 12.5721 10.5 12.25C10.5 11.9278 10.2388 11.6666 9.91666 11.6666L2.91666 11.6666C2.59449 11.6666 2.33332 11.4055 2.33332 11.0833L2.33332 2.91665C2.33332 2.59448 2.59449 2.33331 2.91666 2.33331L9.91666 2.33331C10.2388 2.33331 10.5 2.07214 10.5 1.74998C10.5 1.42781 10.2388 1.16665 9.91666 1.16665L2.91666 1.16665C1.95016 1.16665 1.16666 1.95015 1.16666 2.91665L1.16666 11.0833Z" fill="#2B2F36"/>
<path d="M6.94995 7.58331L8.57914 9.2125C8.80694 9.44031 8.80694 9.80965 8.57914 10.0375C8.35133 10.2653 7.98198 10.2653 7.75418 10.0375L5.12918 7.41246C5.01558 7.29886 4.95386 7.14343 4.95858 6.98284C4.96329 6.82226 5.03403 6.67072 5.15411 6.56399L7.77911 4.23066C8.0199 4.01662 8.38861 4.03831 8.60265 4.2791C8.81668 4.51989 8.79499 4.8886 8.5542 5.10263L7.07594 6.41665L12.8333 6.41665C13.1555 6.41665 13.4167 6.67781 13.4167 6.99998C13.4167 7.32215 13.1555 7.58331 12.8333 7.58331L6.94995 7.58331Z" fill="#2B2F36"/>
</svg>
