<svg width="16" height="16" viewBox="0 0 16 16" fill="none" xmlns="http://www.w3.org/2000/svg">
<path d="M7.99984 0.666748C12.0499 0.666748 15.3332 3.94999 15.3332 8.00008C15.3332 12.0502 12.0499 15.3334 7.99984 15.3334C3.94975 15.3334 0.666504 12.0502 0.666504 8.00008C0.666504 3.94999 3.94975 0.666748 7.99984 0.666748ZM5.77257 2.42708C3.75884 3.2326 2.28358 5.09794 2.03646 7.33342H4.67917C4.68931 5.20009 5.33317 3.33342 5.77257 2.42708ZM13.9632 7.33342C13.7161 5.09794 12.2408 3.2326 10.2271 2.42708C10.6665 3.33342 11.3104 5.46676 11.3205 7.33342H13.9632ZM7.99984 2.00008C6.99983 2.00008 5.99983 5.00008 6.01355 7.33341H9.98613C9.99984 5.00008 8.99984 2.00008 7.99984 2.00008ZM10.2271 13.5731C12.2408 12.7676 13.7161 10.9022 13.9632 8.66674L11.3205 8.66674C11.3104 10.8001 10.6665 12.6667 10.2271 13.5731ZM2.03645 8.66674C2.28357 10.9022 3.75883 12.7676 5.77256 13.5731C5.33317 12.6667 4.6893 10.5334 4.67917 8.66674L2.03645 8.66674ZM7.99984 14.0001C8.99984 14.0001 9.99984 11.0001 9.98613 8.66675H6.01355C5.99983 11.0001 6.99983 14.0001 7.99984 14.0001Z" fill="#2B2F36"/>
</svg>
