<svg width="14" height="14" viewBox="0 0 14 14" fill="none" xmlns="http://www.w3.org/2000/svg">
<path d="M8.39778 4.84503C8.63818 4.60559 9.02824 4.60802 9.26851 4.84759C9.50876 5.08716 9.51143 5.47596 9.27084 5.71519C8.35685 6.62395 7.44096 7.53094 6.53066 8.44335C6.35558 8.61883 6.07044 8.61884 5.89526 8.44347C5.37113 7.91878 4.84451 7.39652 4.31849 6.87371C4.07894 6.6356 4.0847 6.24815 4.32407 6.00987C4.56344 5.77161 4.95251 5.76587 5.19184 6.00417L6.21301 7.02102L8.39778 4.84503Z" fill="white"/>
<path fill-rule="evenodd" clip-rule="evenodd" d="M6.62083 0C6.92554 3.00656e-08 7.17254 0.24701 7.17255 0.551717V1.13072C9.77918 1.38952 11.8521 3.46248 12.1109 6.06912H12.6899C12.9947 6.06913 13.2417 6.31612 13.2417 6.62083C13.2417 6.92554 12.9947 7.17254 12.6899 7.17255H12.1109C11.8521 9.77918 9.77918 11.8521 7.17255 12.1109V12.6899C7.17254 12.9947 6.92554 13.2417 6.62083 13.2417C6.31612 13.2417 6.06913 12.9947 6.06912 12.6899V12.1109C3.46248 11.8521 1.38952 9.77918 1.13072 7.17255H0.551717C0.247011 7.17254 0 6.92554 0 6.62083C1.97431e-07 6.31612 0.247011 6.06913 0.551717 6.06912H1.13072C1.38952 3.46248 3.46248 1.38952 6.06912 1.13072V0.551717C6.06913 0.247011 6.31612 0 6.62083 0ZM6.62083 2.20693C4.18311 2.20693 2.20693 4.18311 2.20693 6.62083C2.20693 9.05856 4.18311 11.0347 6.62083 11.0347C9.05856 11.0347 11.0347 9.05856 11.0347 6.62083C11.0347 4.18311 9.05856 2.20693 6.62083 2.20693Z" fill="white"/>
</svg>
