<svg width="16" height="16" viewBox="0 0 16 16" fill="none" xmlns="http://www.w3.org/2000/svg">
<path d="M10.0002 9.99999C10.0002 11.1046 9.10473 12 8.00016 12C6.89559 12 6.00016 11.1046 6.00016 9.99999C6.00016 8.89542 6.89559 7.99999 8.00016 7.99999C9.10473 7.99999 10.0002 8.89542 10.0002 9.99999ZM8.66683 9.99999C8.66683 9.6318 8.36835 9.33333 8.00016 9.33333C7.63197 9.33333 7.3335 9.6318 7.3335 9.99999C7.3335 10.3682 7.63197 10.6667 8.00016 10.6667C8.36835 10.6667 8.66683 10.3682 8.66683 9.99999Z" fill="currentColor"/>
<path d="M4.3335 4.99999V5.33333H2.66683C1.93045 5.33333 1.3335 5.93028 1.3335 6.66666V13.3333C1.3335 14.0697 1.93045 14.6667 2.66683 14.6667H13.3335C14.0699 14.6667 14.6668 14.0697 14.6668 13.3333V6.66666C14.6668 5.93028 14.0699 5.33333 13.3335 5.33333H11.6668V4.99999C11.6668 2.97495 10.0252 1.33333 8.00016 1.33333C5.97512 1.33333 4.3335 2.97495 4.3335 4.99999ZM10.3335 5.33333H5.66683V4.99999C5.66683 3.71133 6.7115 2.66666 8.00016 2.66666C9.28883 2.66666 10.3335 3.71133 10.3335 4.99999V5.33333ZM2.66683 6.66666H13.3335V13.3333H2.66683V6.66666Z" fill="currentColor"/>
</svg>
