<svg width="16" height="16" viewBox="0 0 16 16" fill="none" xmlns="http://www.w3.org/2000/svg">
<path d="M8.00008 14C11.3138 14 14.0001 11.3137 14.0001 7.99996C14.0001 4.68625 11.3138 1.99996 8.00008 1.99996C4.68637 1.99996 2.00008 4.68625 2.00008 7.99996C2.00008 11.3137 4.68637 14 8.00008 14ZM8.00008 15.3333C3.94999 15.3333 0.666748 12.05 0.666748 7.99996C0.666748 3.94987 3.94999 0.666626 8.00008 0.666626C12.0502 0.666626 15.3334 3.94987 15.3334 7.99996C15.3334 12.05 12.0502 15.3333 8.00008 15.3333ZM7.33341 11.3333C7.33341 10.9651 7.63189 10.6666 8.00008 10.6666C8.36827 10.6666 8.66675 10.9651 8.66675 11.3333C8.66675 11.7015 8.36827 12 8.00008 12C7.63189 12 7.33341 11.7015 7.33341 11.3333ZM5.36665 6.18777C5.37512 6.11325 5.3838 6.05127 5.39268 6.00181C5.52264 5.27808 5.85178 4.74585 6.38009 4.4051C6.79386 4.13501 7.30229 3.99996 7.90541 3.99996C8.69787 3.99996 9.3562 4.19187 9.88042 4.57569C10.4046 4.95951 10.6667 5.52813 10.6667 6.28155C10.6667 6.74356 10.5528 7.13271 10.3249 7.449C10.1916 7.64091 9.93565 7.88613 9.55695 8.18466L9.18351 8.47785C8.98014 8.63778 8.84514 8.82436 8.77852 9.03759C8.76038 9.09578 8.74445 9.20396 8.73071 9.36212C8.71576 9.5344 8.57155 9.66663 8.39863 9.66663H7.65236C7.46826 9.66662 7.31903 9.51739 7.31903 9.33329C7.31903 9.32304 7.3195 9.31279 7.32044 9.30258C7.36337 8.83865 7.40933 8.54508 7.45833 8.42188C7.5495 8.19265 7.78443 7.92878 8.16313 7.63025L8.54709 7.32639C8.67332 7.23044 9.32379 6.77239 9.32379 6.36685C9.32379 5.9613 9.25314 5.81214 9.04953 5.58956C8.84591 5.36699 8.38755 5.29535 7.97378 5.29535C7.56703 5.29535 7.21945 5.40337 7.04938 5.67702C6.97062 5.80376 6.90621 5.93897 6.85976 6.07692C6.84148 6.13119 6.82529 6.19947 6.81118 6.28176C6.78373 6.44178 6.64499 6.55876 6.48264 6.55876H5.69786C5.51376 6.55876 5.36452 6.40952 5.36452 6.22542C5.36452 6.21284 5.36523 6.20027 5.36665 6.18777Z" fill="#7A7D85"/>
</svg>
