<svg width="16" height="16" viewBox="0 0 16 16" fill="none" xmlns="http://www.w3.org/2000/svg">
<path d="M2 2C1.63183 2 1.33333 2.2985 1.33333 2.66667C1.33333 3.03483 1.63183 3.33333 2 3.33333H14C14.3682 3.33333 14.6667 3.03483 14.6667 2.66667C14.6667 2.2985 14.3682 2 14 2H2Z" fill="#61646D"/>
<path d="M2 12.6667C1.63183 12.6667 1.33333 12.9652 1.33333 13.3333C1.33333 13.7015 1.63183 14 2 14H14C14.3682 14 14.6667 13.7015 14.6667 13.3333C14.6667 12.9652 14.3682 12.6667 14 12.6667H2Z" fill="#61646D"/>
<path d="M8 8C8 7.63184 8.2985 7.33333 8.66667 7.33333H14C14.3682 7.33333 14.6667 7.63184 14.6667 8C14.6667 8.36816 14.3682 8.66667 14 8.66667H8.66667C8.2985 8.66667 8 8.36816 8 8Z" fill="#61646D"/>
<path d="M4.7644 8.42668C5.04891 8.2133 5.04891 7.7867 4.7644 7.57332L2.18668 5.63997C1.83504 5.3763 1.33333 5.6272 1.33333 6.06665V9.93335C1.33333 10.3728 1.83504 10.6237 2.18668 10.36L4.7644 8.42668Z" fill="#61646D"/>
</svg>
