<svg width="12" height="12" viewBox="0 0 12 12" fill="none" xmlns="http://www.w3.org/2000/svg">
<path d="M2.75 5.875C2.75 6.35825 2.35825 6.75 1.875 6.75C1.39175 6.75 1 6.35825 1 5.875C1 5.39175 1.39175 5 1.875 5C2.35825 5 2.75 5.39175 2.75 5.875Z" fill="#2B2F36"/>
<path d="M6.86269 5.875C6.86269 6.35825 6.47094 6.75 5.98769 6.75C5.50444 6.75 5.11269 6.35825 5.11269 5.875C5.11269 5.39175 5.50444 5 5.98769 5C6.47094 5 6.86269 5.39175 6.86269 5.875Z" fill="#2B2F36"/>
<path d="M11 5.875C11 6.35825 10.6082 6.75 10.125 6.75C9.64175 6.75 9.25 6.35825 9.25 5.875C9.25 5.39175 9.64175 5 10.125 5C10.6082 5 11 5.39175 11 5.875Z" fill="#2B2F36"/>
</svg>
