<svg width="40" height="40" viewBox="0 0 40 40" fill="none" xmlns="http://www.w3.org/2000/svg">
<path d="M5 4.99984C5 3.15889 6.49238 1.6665 8.33333 1.6665H24.3096C24.7517 1.6665 25.1756 1.8421 25.4882 2.15466L34.5118 11.1783C34.8244 11.4909 35 11.9148 35 12.3569V34.9998C35 36.8408 33.5076 38.3332 31.6667 38.3332H8.33333C6.49238 38.3332 5 36.8408 5 34.9998V4.99984Z" fill="#C25705"/>
<path opacity="0.5" d="M25 2.14935C25 1.97117 25.2154 1.88193 25.3414 2.00793L34.6586 11.3251C34.7846 11.4511 34.6953 11.6665 34.5172 11.6665H28.3333C26.4924 11.6665 25 10.1741 25 8.33317V2.14935Z" fill="#A44904"/>
<path d="M17.3051 30.8251V24.8477H20.1415C20.8232 24.8477 21.5015 24.7878 22.1762 24.668C22.8635 24.546 23.4803 24.3316 24.0256 24.0244C24.5807 23.7117 25.0333 23.2837 25.3812 22.7429C25.7345 22.1938 25.909 21.5053 25.909 20.6814C25.909 20.1383 25.8359 19.6179 25.6894 19.1206C25.5384 18.6083 25.2719 18.1546 24.8915 17.7622C24.5095 17.3681 23.996 17.0617 23.3542 16.8413C22.7183 16.6229 21.9213 16.5151 20.9619 16.5151H15.69C15.5599 16.5151 15.4545 16.6206 15.4545 16.7506V30.8251C15.4545 30.9552 15.5599 31.0606 15.69 31.0606H17.0696C17.1997 31.0606 17.3051 30.9552 17.3051 30.8251ZM21.864 23.1217C21.3705 23.1978 20.8096 23.236 20.1815 23.236H17.3051V18.1268H20.5816C21.8257 18.1268 22.7185 18.3424 23.2615 18.7594C23.7926 19.1673 24.0583 19.7679 24.0583 20.5837C24.0583 21.1479 23.9689 21.5968 23.7948 21.9308C23.6215 22.2634 23.3787 22.5236 23.0633 22.7154C22.7393 22.9123 22.3401 23.0483 21.864 23.1217Z" fill="white"/>
</svg>
