<svg width="14" height="14" viewBox="0 0 14 14" fill="none" xmlns="http://www.w3.org/2000/svg">
<path d="M5.79217 2.49235C6.78446 2.22646 7.83675 2.29543 8.78584 2.68856C9.62801 3.0374 10.3472 3.62416 10.8574 4.37352L9.04314 4.37352C8.72097 4.37352 8.4598 4.63468 8.4598 4.95685C8.4598 5.27902 8.72097 5.54018 9.04314 5.54018L12.2494 5.54018C12.4479 5.54018 12.6239 5.44102 12.7292 5.28952C12.7949 5.19516 12.8333 5.0805 12.8333 4.95685V1.75C12.8333 1.42783 12.5722 1.16667 12.25 1.16667C11.9278 1.16667 11.6667 1.42783 11.6667 1.75V3.49999C11.0418 2.66682 10.2023 2.0125 9.23231 1.6107C8.04594 1.11929 6.73057 1.03308 5.49021 1.36543C4.24985 1.69779 3.15382 2.43013 2.37209 3.44889C1.59037 4.46765 1.16666 5.71588 1.16666 7C1.16666 8.28412 1.59038 9.53235 2.3721 10.5511C3.15382 11.5699 4.24985 12.3022 5.49021 12.6346C6.73057 12.9669 8.04594 12.8807 9.23231 12.3893C10.4187 11.8979 11.4097 11.0287 12.0518 9.91667C12.2129 9.63766 12.1173 9.2809 11.8383 9.11982C11.5593 8.95873 11.2025 9.05433 11.0414 9.33333C10.5278 10.223 9.73494 10.9183 8.78585 11.3114C7.83675 11.7046 6.78446 11.7735 5.79217 11.5077C4.79988 11.2418 3.92305 10.6559 3.29767 9.84089C2.6723 9.02588 2.33332 8.02729 2.33332 7C2.33332 5.97271 2.6723 4.97412 3.29767 4.15911C3.92305 3.34411 4.79988 2.75823 5.79217 2.49235Z" fill="#2B2F36"/>
</svg>
