<svg width="14" height="14" viewBox="0 0 14 14" fill="none" xmlns="http://www.w3.org/2000/svg">
<path d="M1.75 2.33333C1.75 2.01117 2.01117 1.75 2.33333 1.75C2.6555 1.75 2.91667 2.01117 2.91667 2.33333V3.89014C3.93014 2.58846 5.51273 1.75 7.29178 1.75C10.3524 1.75 12.8334 4.23109 12.8334 7.29167C12.8334 10.3522 10.3524 12.8333 7.29178 12.8333C5.17413 12.8333 3.33486 11.6453 2.40242 9.90222C2.25046 9.61814 2.35756 9.26466 2.64163 9.11271C2.92571 8.96075 3.27919 9.06785 3.43115 9.35192C4.16871 10.7307 5.62139 11.6667 7.29178 11.6667C9.70803 11.6667 11.6668 9.70791 11.6668 7.29167C11.6668 4.87542 9.70803 2.91667 7.29178 2.91667C5.86109 2.91667 4.59009 3.60327 3.79136 4.66667H5.25C5.57217 4.66667 5.83333 4.92783 5.83333 5.25C5.83333 5.57217 5.57217 5.83333 5.25 5.83333H2.33333C2.01117 5.83333 1.75 5.57217 1.75 5.25V2.33333Z" fill="#2B2F36"/>
</svg>
