<svg width="20" height="20" viewBox="0 0 20 20" fill="none" xmlns="http://www.w3.org/2000/svg">
<path d="M13.7278 14.9059C12.3679 16.0069 10.636 16.6663 8.75004 16.6663C4.37779 16.6663 0.833374 13.1219 0.833374 8.74967C0.833374 4.37742 4.37779 0.833008 8.75004 0.833008C13.1223 0.833008 16.6667 4.37742 16.6667 8.74967C16.6667 10.6356 16.0072 12.3676 14.9063 13.7274L18.0501 16.8713C18.3736 17.1947 18.3675 17.7202 18.044 18.0437C17.7206 18.3671 17.1951 18.3732 16.8716 18.0498L13.7278 14.9059ZM15 8.74967C15 5.29789 12.2018 2.49967 8.75004 2.49967C5.29826 2.49967 2.50004 5.29789 2.50004 8.74967C2.50004 12.2015 5.29826 14.9997 8.75004 14.9997C12.2018 14.9997 15 12.2015 15 8.74967Z" fill="#646A73"/>
</svg>
