<svg width="40" height="40" viewBox="0 0 40 40" fill="none" xmlns="http://www.w3.org/2000/svg">
<path d="M5 4.99984C5 3.15889 6.49238 1.6665 8.33333 1.6665H24.3096C24.7517 1.6665 25.1756 1.8421 25.4882 2.15466L34.5118 11.1783C34.8244 11.4909 35 11.9148 35 12.3569V34.9998C35 36.8408 33.5076 38.3332 31.6667 38.3332H8.33333C6.49238 38.3332 5 36.8408 5 34.9998V4.99984Z" fill="#336DF4"/>
<path opacity="0.7" d="M25 2.14935C25 1.97117 25.2154 1.88193 25.3414 2.00793L34.6586 11.3251C34.7846 11.4511 34.6953 11.6665 34.5172 11.6665H28.3333C26.4924 11.6665 25 10.1741 25 8.33317V2.14935Z" fill="#1456F0"/>
<path d="M20.9092 17.8787V30.3787C20.9092 30.5042 20.8074 30.606 20.6819 30.606H19.3182C19.1927 30.606 19.091 30.5042 19.091 30.3787V17.8787H13.4092C13.2836 17.8787 13.1819 17.777 13.1819 17.6515V16.2878C13.1819 16.1623 13.2836 16.0605 13.4092 16.0605H26.591C26.7165 16.0605 26.8182 16.1623 26.8182 16.2878V17.6515C26.8182 17.777 26.7165 17.8787 26.591 17.8787H20.9092Z" fill="white"/>
</svg>
