<svg width="40" height="40" viewBox="0 0 40 40" fill="none" xmlns="http://www.w3.org/2000/svg">
<path opacity="0.9" d="M5 4.99984C5 3.15889 6.49238 1.6665 8.33333 1.6665H24.3096C24.7517 1.6665 25.1756 1.8421 25.4882 2.15466L34.5118 11.1783C34.8244 11.4909 35 11.9148 35 12.3569V34.9998C35 36.8408 33.5076 38.3332 31.6667 38.3332H8.33333C6.49238 38.3332 5 36.8408 5 34.9998V4.99984Z" fill="#8F959E"/>
<path opacity="0.6" d="M25 2.14935C25 1.97117 25.2154 1.88193 25.3414 2.00793L34.6586 11.3251C34.7846 11.4511 34.6953 11.6665 34.5172 11.6665H28.3333C26.4924 11.6665 25 10.1741 25 8.33317V2.14935Z" fill="#646A73"/>
<path d="M23.8133 16.4407C22.9037 15.579 21.7099 15.1514 20.2254 15.1514C18.5577 15.1514 17.2508 15.686 16.3039 16.775C15.5018 17.7108 15.0696 18.6077 15.0078 20.0217C15.0064 20.0549 15.0051 20.1162 15.0041 20.187C15.0007 20.4179 15.1881 20.6059 15.4191 20.6059H16.4042C16.6333 20.6059 16.8189 20.4209 16.8227 20.1918C16.8238 20.1228 16.8251 20.0633 16.8267 20.0315C16.8751 19.0547 17.1299 18.5436 17.5847 17.9752C18.1588 17.2098 19.001 16.8332 20.1572 16.8332C21.189 16.8332 21.9625 17.0963 22.4965 17.6303C23.0055 18.1605 23.2708 18.8823 23.2708 19.7877C23.2708 20.4058 23.0468 20.9945 22.5914 21.58C22.4464 21.7613 22.2374 21.977 21.5647 22.6498C20.5019 23.579 19.8455 24.3349 19.4987 25.078C19.2136 25.648 19.0683 26.2959 19.0683 26.9923V27.462C19.0683 27.6921 19.2549 27.8786 19.485 27.8786H20.4925C20.7227 27.8786 20.9092 27.6921 20.9092 27.462V26.9923C20.9092 26.4021 21.0545 25.8728 21.3555 25.3568C21.581 24.9736 21.8704 24.673 22.375 24.2315C23.3868 23.3161 23.9481 22.7708 24.1995 22.4509C24.8034 21.6538 25.1117 20.7409 25.1117 19.7423C25.1117 18.3641 24.6791 17.2584 23.8133 16.4407ZM19.5077 29.6968C19.2776 29.6968 19.091 29.8834 19.091 30.1135V31.0983C19.091 31.3285 19.2776 31.515 19.5077 31.515H20.4925C20.7227 31.515 20.9092 31.3285 20.9092 31.0983V30.1135C20.9092 29.8834 20.7227 29.6968 20.4925 29.6968H19.5077Z" fill="white"/>
</svg>
