<svg width="16" height="16" viewBox="0 0 16 16" fill="none" xmlns="http://www.w3.org/2000/svg">
<path d="M8.00016 12C9.10473 12 10.0002 11.1046 10.0002 10C10.0002 8.89544 9.10473 8.00001 8.00016 8.00001C6.89559 8.00001 6.00016 8.89544 6.00016 10C6.00016 11.1046 6.89559 12 8.00016 12ZM8.00016 9.33334C8.36835 9.33334 8.66683 9.63182 8.66683 10C8.66683 10.3682 8.36835 10.6667 8.00016 10.6667C7.63197 10.6667 7.3335 10.3682 7.3335 10C7.3335 9.63182 7.63197 9.33334 8.00016 9.33334Z" fill="currentColor"/>
<path d="M8.3335 4.49949C8.3335 2.38268 10.0495 0.666672 12.1663 0.666672C14.1193 0.666672 15.76 2.13516 15.9757 4.07623L15.9961 4.25972C16.0367 4.62566 15.7731 4.95527 15.4071 4.99593C15.0412 5.03659 14.7116 4.7729 14.6709 4.40696L14.6505 4.22347C14.5099 2.95765 13.4399 2.00001 12.1663 2.00001C10.7859 2.00001 9.66683 3.11906 9.66683 4.49949V5.33334H13.3335C14.0699 5.33334 14.6668 5.93029 14.6668 6.66667V13.3333C14.6668 14.0697 14.0699 14.6667 13.3335 14.6667H2.66683C1.93045 14.6667 1.3335 14.0697 1.3335 13.3333V6.66667C1.3335 5.93029 1.93045 5.33334 2.66683 5.33334H8.3335V4.49949ZM2.66683 6.66667V13.3333H13.3335V6.66667H2.66683Z" fill="currentColor"/>
</svg>
