<svg width="40" height="40" viewBox="0 0 40 40" fill="none" xmlns="http://www.w3.org/2000/svg">
<path d="M5 4.99984C5 3.15889 6.49238 1.6665 8.33333 1.6665H24.3096C24.7517 1.6665 25.1756 1.8421 25.4882 2.15466L34.5118 11.1783C34.8244 11.4909 35 11.9148 35 12.3569V34.9998C35 36.8408 33.5076 38.3332 31.6667 38.3332H8.33333C6.49238 38.3332 5 36.8408 5 34.9998V4.99984Z" fill="#336DF4"/>
<path opacity="0.7" d="M25 2.14935C25 1.97117 25.2154 1.88193 25.3414 2.00793L34.6586 11.3251C34.7846 11.4511 34.6953 11.6665 34.5172 11.6665H28.3333C26.4924 11.6665 25 10.1741 25 8.33317V2.14935Z" fill="#0442D2"/>
<path d="M11.6667 17.9165C11.6667 17.2261 12.2264 16.6665 12.9167 16.6665H21.6667C22.3571 16.6665 22.9167 17.2261 22.9167 17.9165V19.4009L24.8039 18.3393C25.6372 17.8706 26.6667 18.4728 26.6667 19.4288V25.1542C26.6667 26.1102 25.6372 26.7124 24.8039 26.2437L22.9167 25.1821V26.6665C22.9167 27.3569 22.3571 27.9165 21.6667 27.9165H12.9167C12.2264 27.9165 11.6667 27.3569 11.6667 26.6665V17.9165ZM15.4167 21.6665C16.1071 21.6665 16.6667 21.1069 16.6667 20.4165C16.6667 19.7261 16.1071 19.1665 15.4167 19.1665C14.7264 19.1665 14.1667 19.7261 14.1667 20.4165C14.1667 21.1069 14.7264 21.6665 15.4167 21.6665Z" fill="white"/>
</svg>
