<svg width="16" height="16" viewBox="0 0 16 16" fill="none" xmlns="http://www.w3.org/2000/svg">
<path d="M7.98994 12.3333C10.1486 12.3333 12.1472 10.9603 14.0001 7.99133C12.1949 5.03304 10.2008 3.66666 7.98994 3.66666C5.77984 3.66666 3.7929 5.03242 2.00009 7.99131C3.84053 10.9609 5.83206 12.3333 7.98994 12.3333ZM1.00172 8.59336C0.787049 8.22795 0.785596 7.77368 0.995302 7.4054C1.00277 7.39228 1.00993 7.37977 1.01672 7.36801C2.9521 4.01155 5.27627 2.33333 7.98923 2.33333C10.7133 2.33333 13.0518 4.02527 15.0049 7.40916C15.0107 7.4193 15.0168 7.43001 15.0232 7.44122C15.2208 7.78722 15.2193 8.21433 15.0172 8.5577C13.0127 11.9637 10.67 13.6667 7.98923 13.6667C5.31784 13.6667 2.98867 11.9756 1.00172 8.59336ZM8.00009 10.6667C6.52733 10.6667 5.33342 9.47275 5.33342 7.99999C5.33342 6.52724 6.52733 5.33333 8.00009 5.33333C9.47285 5.33333 10.6668 6.52724 10.6668 7.99999C10.6668 9.47275 9.47285 10.6667 8.00009 10.6667ZM8.00009 9.33333C8.73647 9.33333 9.33342 8.73637 9.33342 7.99999C9.33342 7.26361 8.73647 6.66666 8.00009 6.66666C7.26371 6.66666 6.66675 7.26361 6.66675 7.99999C6.66675 8.73637 7.26371 9.33333 8.00009 9.33333Z" fill="currentColor"/>
</svg>
