<svg width="16" height="16" viewBox="0 0 16 16" fill="none" xmlns="http://www.w3.org/2000/svg">
<path d="M9.68005 12.0372L10.6823 13.0395C9.82607 13.4576 8.9283 13.6667 7.98903 13.6667C5.32606 13.6667 3.00316 11.9862 1.02032 8.62531C0.792905 8.23984 0.78974 7.76163 1.01317 7.37384C1.53531 6.46757 2.08576 5.68352 2.66453 5.02167L3.53607 5.89321C3.00868 6.47341 2.49683 7.17117 1.99989 7.99133C3.84033 10.9609 5.83187 12.3333 7.98974 12.3333C8.56443 12.3333 9.12777 12.236 9.68005 12.0372ZM12.439 10.0821C12.9705 9.50261 13.4907 8.80723 13.9999 7.99133C12.1947 5.03304 10.2006 3.66666 7.98974 3.66666C7.41354 3.66666 6.8525 3.75949 6.30611 3.94919L5.29931 2.94239C6.14885 2.53635 7.04542 2.33333 7.98903 2.33333C10.7025 2.33333 13.0335 4.0122 14.982 7.36995C15.208 7.75948 15.2054 8.24094 14.9754 8.62814C14.4441 9.52243 13.8893 10.2977 13.3108 10.9539L12.439 10.0821ZM8.29355 10.6507C8.19711 10.6612 8.09913 10.6667 7.99989 10.6667C6.52713 10.6667 5.33322 9.47275 5.33322 8C5.33322 7.90075 5.33864 7.80277 5.34921 7.70634L8.29355 10.6507ZM10.6506 8.29365L7.70623 5.34931C7.80266 5.33875 7.90064 5.33333 7.99989 5.33333C9.47265 5.33333 10.6666 6.52723 10.6666 7.99999C10.6666 8.09924 10.6611 8.19722 10.6506 8.29365ZM1.47296 1.47312C1.73232 1.21376 2.15336 1.21071 2.41273 1.47008L14.6717 13.729C14.9313 13.9886 14.9288 14.4098 14.6692 14.6694C14.4097 14.9289 13.9885 14.9314 13.7289 14.6719L1.46991 2.41288C1.21055 2.15352 1.21359 1.73248 1.47296 1.47312Z" fill="currentColor"/>
</svg>
