<svg width="20" height="20" viewBox="0 0 20 20" fill="none" xmlns="http://www.w3.org/2000/svg">
<path d="M3.33332 1.66675C2.41285 1.66675 1.66666 2.41294 1.66666 3.33341V5.83341C1.66666 6.29365 2.03975 6.66675 2.49999 6.66675C2.96023 6.66675 3.33332 6.29365 3.33332 5.83341V3.33341H5.83332C6.29356 3.33341 6.66666 2.96032 6.66666 2.50008C6.66666 2.03984 6.29356 1.66675 5.83332 1.66675H3.33332Z" fill="#61646D"/>
<path d="M18.3333 3.33341V5.83341C18.3333 6.29365 17.9602 6.66675 17.5 6.66675C17.0398 6.66675 16.6667 6.29365 16.6667 5.83341V3.33341H14.1667C13.7064 3.33341 13.3333 2.96032 13.3333 2.50008C13.3333 2.03984 13.7064 1.66675 14.1667 1.66675H16.6667C17.5871 1.66675 18.3333 2.41294 18.3333 3.33341Z" fill="#61646D"/>
<path d="M14.1667 18.3334H16.6667C17.5871 18.3334 18.3333 17.5872 18.3333 16.6667V14.1667C18.3333 13.7065 17.9602 13.3334 17.5 13.3334C17.0398 13.3334 16.6667 13.7065 16.6667 14.1667V16.6667H14.1667C13.7064 16.6667 13.3333 17.0398 13.3333 17.5001C13.3333 17.9603 13.7064 18.3334 14.1667 18.3334Z" fill="#61646D"/>
<path d="M1.66666 16.6667V14.1667C1.66666 13.7065 2.03975 13.3334 2.49999 13.3334C2.96023 13.3334 3.33332 13.7065 3.33332 14.1667L3.33332 16.6667H5.83332C6.29356 16.6667 6.66666 17.0398 6.66666 17.5001C6.66666 17.9603 6.29356 18.3334 5.83332 18.3334H3.33332C2.41285 18.3334 1.66666 17.5872 1.66666 16.6667Z" fill="#61646D"/>
</svg>
