<svg width="40" height="40" viewBox="0 0 40 40" fill="none" xmlns="http://www.w3.org/2000/svg">
<path d="M5 4.99984C5 3.15889 6.49238 1.6665 8.33333 1.6665H24.3096C24.7517 1.6665 25.1756 1.8421 25.4882 2.15466L34.5118 11.1783C34.8244 11.4909 35 11.9148 35 12.3569V34.9998C35 36.8408 33.5076 38.3332 31.6667 38.3332H8.33333C6.49238 38.3332 5 36.8408 5 34.9998V4.99984Z" fill="#336DF4"/>
<path opacity="0.7" d="M25 2.14935C25 1.97117 25.2154 1.88193 25.3414 2.00793L34.6586 11.3251C34.7846 11.4511 34.6953 11.6665 34.5172 11.6665H28.3333C26.4924 11.6665 25 10.1741 25 8.33317V2.14935Z" fill="#0442D2"/>
<path d="M20.0071 20.4158L17.5495 29.51C17.5197 29.6204 17.4195 29.697 17.3052 29.697H15.8578C15.7446 29.697 15.6451 29.6219 15.6143 29.513L12.2817 17.7463C12.2437 17.6119 12.3218 17.472 12.4562 17.4339C12.4787 17.4275 12.5019 17.4243 12.5252 17.4243H13.9768C14.0922 17.4243 14.1929 17.5023 14.2218 17.614L16.5933 26.7863L19.056 17.6118C19.0857 17.5012 19.1859 17.4243 19.3004 17.4243H20.7149C20.8295 17.4243 20.9299 17.5014 20.9594 17.6121L23.4063 26.784L25.7772 17.614C25.8061 17.5023 25.9068 17.4243 26.0222 17.4243H27.4738C27.6136 17.4243 27.7269 17.5376 27.7269 17.6774C27.7269 17.7007 27.7236 17.7239 27.7173 17.7463L24.3847 29.513C24.3539 29.6219 24.2545 29.697 24.1413 29.697H22.6938C22.5794 29.697 22.4791 29.6202 22.4495 29.5096L20.0071 20.4158Z" fill="white"/>
</svg>
