<svg width="40" height="40" viewBox="0 0 40 40" fill="none" xmlns="http://www.w3.org/2000/svg">
<path d="M5 4.99984C5 3.15889 6.49238 1.6665 8.33333 1.6665H24.3096C24.7517 1.6665 25.1756 1.8421 25.4882 2.15466L34.5118 11.1783C34.8244 11.4909 35 11.9148 35 12.3569V34.9998C35 36.8408 33.5076 38.3332 31.6667 38.3332H8.33333C6.49238 38.3332 5 36.8408 5 34.9998V4.99984Z" fill="#336DF4"/>
<path opacity="0.7" d="M25 2.14935C25 1.97117 25.2154 1.88193 25.3414 2.00793L34.6586 11.3251C34.7846 11.4511 34.6953 11.6665 34.5172 11.6665H28.3333C26.4924 11.6665 25 10.1741 25 8.33317V2.14935Z" fill="#0442D2"/>
<path d="M25.7143 15.8335C26.2403 15.8335 26.6667 16.2532 26.6667 16.771V29.896C26.6667 30.4138 26.2403 30.8335 25.7143 30.8335H14.2858C13.7598 30.8335 13.3334 30.4138 13.3334 29.896V16.771C13.3334 16.2532 13.7598 15.8335 14.2858 15.8335H25.7143ZM21.9048 26.146H18.0953V29.4272H21.9048V26.146ZM20.9524 27.0835V28.1683H19.0477V27.0835H20.9524ZM21.9487 19.5835H20V21.4585H18.0953V23.3335H20V25.2085H21.9487V23.3335H20.044V21.4585H21.9487V19.5835ZM20 17.7085H18.0953V19.5835H20V17.7085Z" fill="white"/>
</svg>
