<svg width="120" height="120" viewBox="0 0 120 120" fill="none" xmlns="http://www.w3.org/2000/svg">
<path d="M60 110C89.2711 110 113 86.4949 113 57.5C113 28.505 89.2711 5 60 5C30.7289 5 7 28.5051 7 57.5C7 86.495 30.7289 110 60 110Z" fill="#EFF0F1"/>
<path d="M19.4785 42.7866C18.8409 39.4967 21.1085 36.3316 24.5433 35.7172L82.2178 25.4009C85.6526 24.7866 88.9539 26.9555 89.5915 30.2454L99.6403 82.0989C100.278 85.3889 98.0103 88.5539 94.5755 89.1683L36.901 99.4846C33.4662 100.099 30.1649 97.93 29.5273 94.6401L19.4785 42.7866Z" fill="url(#paint0_linear_5362_69808)"/>
<g filter="url(#filter0_d_5362_69808)">
<path d="M83.7492 25.307C83.247 25.2791 82.7332 25.3085 82.2163 25.4009L35.248 33.8022L32.5708 75.4279C32.484 76.798 32.8632 78.1427 33.6249 79.1664C33.9923 79.6756 34.4451 80.0901 34.956 80.3849C35.4679 80.6711 36.0234 80.839 36.5926 80.8795L76.0403 83.5517C76.6037 83.5935 77.1704 83.5013 77.7069 83.2808C78.2554 83.0631 78.7627 82.7181 79.1987 82.2668C79.6347 81.8155 79.9903 81.2672 80.2442 80.6545C80.5036 80.0415 80.6634 79.3786 80.7151 78.7005L84.0106 27.4608C84.0453 26.7816 83.9718 26.1031 83.794 25.4602C83.7797 25.4088 83.7648 25.3577 83.7492 25.307Z" fill="url(#paint1_linear_5362_69808)"/>
</g>
<path d="M80.0395 21.9679L40.5918 19.2957C40.0232 19.2553 39.4513 19.343 38.9068 19.554C38.3543 19.7771 37.843 20.126 37.4025 20.5805C36.9562 21.0285 36.5939 21.5808 36.3394 22.2009C36.0764 22.8124 35.9164 23.4761 35.8685 24.1549L32.5708 75.4281C32.484 76.7982 32.8632 78.1429 33.6249 79.1666C33.9923 79.6758 34.4451 80.0903 34.956 80.3851C35.4679 80.6713 36.0234 80.8392 36.5926 80.8797L76.0403 83.5519C76.6037 83.5937 77.1704 83.5015 77.7069 83.2811C78.2554 83.0633 78.7627 82.7183 79.1987 82.267C79.6347 81.8157 79.9903 81.2674 80.2442 80.6547C80.5036 80.0417 80.6634 79.3788 80.7151 78.7007L84.0106 27.461C84.0454 26.7818 83.9718 26.1033 83.794 25.4604C83.6139 24.812 83.3266 24.2136 82.9484 23.6994C82.5781 23.1937 82.1259 22.7797 81.6173 22.4809C81.1084 22.196 80.5562 22.0286 79.9903 21.9872L80.0395 21.9679Z" fill="url(#paint2_linear_5362_69808)"/>
<path d="M42.0679 39.3133C42.0977 38.7551 42.5744 38.3295 43.1326 38.3627L75.7062 40.2986C76.2645 40.3318 76.6928 40.8112 76.6629 41.3694C76.6331 41.9276 76.1564 42.3532 75.5982 42.32L43.0246 40.3841C42.4664 40.3509 42.038 39.8715 42.0679 39.3133Z" fill="#C2C5CD"/>
<path d="M42.5601 31.6883C42.5899 31.1301 43.0666 30.7045 43.6248 30.7377L76.1984 32.6736C76.7566 32.7068 77.185 33.1862 77.1551 33.7444C77.1253 34.3026 76.6486 34.7282 76.0904 34.695L43.5167 32.7591C42.9585 32.7259 42.5302 32.2465 42.5601 31.6883Z" fill="#C2C5CD"/>
<path d="M21.2587 45.5144C17.8243 46.1538 15.5584 49.4564 16.1978 52.8908L24.2113 95.9367C24.8507 99.3711 28.1532 101.637 31.5877 100.998L94.5565 89.2746C97.991 88.6352 100.257 85.3327 99.6174 81.8982L93.8961 51.1665C93.2567 47.732 89.9541 45.4662 86.5197 46.1056L52.7518 52.3922L47.9703 46.5786C45.3137 43.3488 41.1112 41.8185 36.9998 42.5839L21.2587 45.5144Z" fill="#D6DCEA"/>
<defs>
<filter id="filter0_d_5362_69808" x="30.5586" y="23.2969" width="59.4609" height="66.2646" filterUnits="userSpaceOnUse" color-interpolation-filters="sRGB">
<feFlood flood-opacity="0" result="BackgroundImageFix"/>
<feColorMatrix in="SourceAlpha" type="matrix" values="0 0 0 0 0 0 0 0 0 0 0 0 0 0 0 0 0 0 127 0" result="hardAlpha"/>
<feOffset dx="2" dy="2"/>
<feGaussianBlur stdDeviation="2"/>
<feComposite in2="hardAlpha" operator="out"/>
<feColorMatrix type="matrix" values="0 0 0 0 0 0 0 0 0 0.258824 0 0 0 0 0.823529 0 0 0 0.25 0"/>
<feBlend mode="normal" in2="BackgroundImageFix" result="effect1_dropShadow_5362_69808"/>
<feBlend mode="normal" in="SourceGraphic" in2="effect1_dropShadow_5362_69808" result="shape"/>
</filter>
<linearGradient id="paint0_linear_5362_69808" x1="44" y1="28.5" x2="68.0204" y2="94.1393" gradientUnits="userSpaceOnUse">
<stop stop-color="#5E8CFF"/>
<stop offset="1" stop-color="#0048FF"/>
</linearGradient>
<linearGradient id="paint1_linear_5362_69808" x1="45.6275" y1="35.9825" x2="113.884" y2="41.1274" gradientUnits="userSpaceOnUse">
<stop stop-color="#7DC1FF"/>
<stop offset="1" stop-color="#5083FB"/>
</linearGradient>
<linearGradient id="paint2_linear_5362_69808" x1="57.8775" y1="19.0569" x2="58.6997" y2="83.7798" gradientUnits="userSpaceOnUse">
<stop stop-color="white"/>
<stop offset="1" stop-color="#F0F4FF"/>
</linearGradient>
</defs>
</svg>
